<svg height="512pt" viewBox="0 0 512 512" width="512pt" xmlns="http://www.w3.org/2000/svg"><path d="m512 256c0 141.386719-114.613281 256-256 256s-256-114.613281-256-256 114.613281-256 256-256 256 114.613281 256 256zm0 0" fill="#fa5d0f"/><path d="m512 256c0-35.339844-7.160156-69.003906-20.109375-99.625l-52.367187-52.367188-367.046876 303.984376 83.898438 83.898437c30.621094 12.949219 64.285156 20.109375 99.625 20.109375 141.386719 0 256-114.613281 256-256zm0 0" fill="#d13400"/><path d="m317.175781 144.007812-122.351562-40-122.347657 40v263.984376l122.347657-40 122.351562 40 122.347657-40v-263.984376zm0 0" fill="#f2d1a5"/><path d="m317.175781 144.007812-61.421875-20.078124v263.980468l61.421875 20.082032 122.347657-40v-263.984376zm0 0" fill="#e3a76f"/><path d="m317.175781 407.992188-122.351562-40v-263.984376l122.351562 40zm0 0" fill="#ffe4c2"/><path d="m317.175781 144.007812-61.421875-20.078124v263.980468l61.421875 20.082032zm0 0" fill="#f2bb88"/><path d="m394 226c-10.878906 4.816406-21 24.332031-34.332031 24s-40-11-60.667969 6-43.332031 21-58 18.332031-26 7.332031-21.332031 22 18 28.667969 50.667969 34c32.664062 5.332031 42 18 74.664062 0 32.667969-18 57.085938-43 63.75-68.332031 6.667969-25.332031-.675781-42.230469-14.75-36zm0 0" fill="#0a773b"/><path d="m317.175781 247.433594c-6.246093 1.269531-12.441406 3.847656-18.175781 8.566406-20.667969 17-43.332031 21-58 18.332031s-26 7.332031-21.332031 22 18 28.667969 50.667969 34c21.179687 3.457031 32.554687 9.992188 46.839843 9.257813zm0 0" fill="#06b26b"/><path d="m299 256c-14.59375 12.003906-30.179688 17.519531-43.246094 18.789062v52.242188c4.375 1.308594 9.210938 2.425781 14.582032 3.300781 21.179687 3.457031 32.554687 9.992188 46.839843 9.257813v-92.15625c-6.246093 1.269531-12.441406 3.847656-18.175781 8.566406zm0 0" fill="#0a9154"/><path d="m194.824219 104.007812-122.347657 40v263.984376l58.476563-19.117188c6.035156-25.917969 2.234375-58.144531 15.039063-75.242188 19.941406-26.625-13.492188-50.472656-14.964844-75.039062-.777344-13.003906 12.464844-24.742188 25.972656-34.929688 40.667969-30.664062 34.667969-8 69.332031-17.332031 30.449219-8.195312 62.949219-18.066406 78.089844-46.492187zm0 0" fill="#0a9154"/><path d="m264.410156 126.757812-69.585937-22.75v83.082032c7.574219.820312 14.839843 3.730468 31.507812-.757813 30.449219-8.195312 62.949219-18.066406 78.089844-46.492187zm0 0" fill="#06b26b"/><path d="m304.421875 139.839844-40.011719-13.082032-8.65625-2.828124v53.390624c20.167969-7.476562 38.40625-18.214843 48.667969-37.480468zm0 0" fill="#0a9154"/></svg>